# Made in Blockbench 4.9.4
mtllib materials.mtl

o cube
v 4.3125 0.0625 1.125
v 4.3125 0.0625 -0.75
v 4.3125 0 1.125
v 4.3125 0 -0.75
v -1.9375 0.0625 -0.75
v -1.9375 0.0625 1.125
v -1.9375 0 -0.75
v -1.9375 0 1.125
vt 0 0.53125
vt 0.78125 0.53125
vt 0.78125 0.5234375
vt 0 0.5234375
vt 0 0.515625
vt 0.234375 0.515625
vt 0.234375 0.5078125
vt 0 0.5078125
vt 0 0.5234375
vt 0.78125 0.5234375
vt 0.78125 0.515625
vt 0 0.515625
vt 0.234375 0.515625
vt 0.46875 0.515625
vt 0.46875 0.5078125
vt 0.234375 0.5078125
vt 0.78125 0.765625
vt 0 0.765625
vt 0 1
vt 0.78125 1
vt 0.78125 0.765625
vt 0 0.765625
vt 0 0.53125
vt 0.78125 0.53125
vn 0 0 -1
vn 1 0 0
vn 0 0 1
vn -1 0 0
vn 0 1 0
vn 0 -1 0
usemtl m_d969459a-ef0c-05b2-9408-44a0e16d8bb9
f 4/4/1 7/3/1 5/2/1 2/1/1
f 3/8/2 4/7/2 2/6/2 1/5/2
f 8/12/3 3/11/3 1/10/3 6/9/3
f 7/16/4 8/15/4 6/14/4 5/13/4
f 6/20/5 1/19/5 2/18/5 5/17/5
f 7/24/6 4/23/6 3/22/6 8/21/6