# Made in Blockbench 4.9.4
mtllib materials.mtl

o body
v 0.125 0.1875 0.11250000000000004
v 0.125 0.1875 -0.07500000000000001
v 0.125 0.03125 0.11250000000000004
v 0.125 0.03125 -0.07500000000000001
v -0.0625 0.1875 -0.07500000000000001
v -0.0625 0.1875 0.11250000000000004
v -0.0625 0.03125 -0.07500000000000001
v -0.0625 0.03125 0.11250000000000004
vt 0 1
vt 0.1875 1
vt 0.1875 0.8125
vt 0 0.8125
vt 0 0.8125
vt 0.1875 0.8125
vt 0.1875 0.625
vt 0 0.625
vt 0.1875 1
vt 0.375 1
vt 0.375 0.8125
vt 0.1875 0.8125
vt 0.1875 0.8125
vt 0.375 0.8125
vt 0.375 0.625
vt 0.1875 0.625
vt 0.1875 0.4375
vt 0 0.4375
vt 0 0.625
vt 0.1875 0.625
vt 0.5625 1
vt 0.375 1
vt 0.375 0.8125
vt 0.5625 0.8125
vn 0 0 -1
vn 1 0 0
vn 0 0 1
vn -1 0 0
vn 0 1 0
vn 0 -1 0
usemtl m_fc5c353a-ddc5-3aea-76e3-a26e78457cb1
f 4/4/1 7/3/1 5/2/1 2/1/1
f 3/8/2 4/7/2 2/6/2 1/5/2
f 8/12/3 3/11/3 1/10/3 6/9/3
f 7/16/4 8/15/4 6/14/4 5/13/4
f 6/20/5 1/19/5 2/18/5 5/17/5
f 7/24/6 4/23/6 3/22/6 8/21/6
o head
v 0.09375 0.2749999999999999 -0.018750000000000044
v 0.09375 0.2749999999999999 -0.14375000000000004
v 0.09375 0.1499999999999999 -0.018750000000000044
v 0.09375 0.1499999999999999 -0.14375000000000004
v -0.03125 0.2749999999999999 -0.14375000000000004
v -0.03125 0.2749999999999999 -0.018750000000000044
v -0.03125 0.1499999999999999 -0.14375000000000004
v -0.03125 0.1499999999999999 -0.018750000000000044
vt 0.1875 0.625
vt 0.3125 0.625
vt 0.3125 0.5
vt 0.1875 0.5
vt 0.375 0.8125
vt 0.5 0.8125
vt 0.5 0.6875
vt 0.375 0.6875
vt 0.3125 0.625
vt 0.4375 0.625
vt 0.4375 0.5
vt 0.3125 0.5
vt 0.4375 0.6875
vt 0.5625 0.6875
vt 0.5625 0.5625
vt 0.4375 0.5625
vt 0.5625 0.4375
vt 0.4375 0.4375
vt 0.4375 0.5625
vt 0.5625 0.5625
vt 0.3125 0.5
vt 0.1875 0.5
vt 0.1875 0.375
vt 0.3125 0.375
vn 0 0 -1
vn 1 0 0
vn 0 0 1
vn -1 0 0
vn 0 1 0
vn 0 -1 0
usemtl m_fc5c353a-ddc5-3aea-76e3-a26e78457cb1
f 12/28/7 15/27/7 13/26/7 10/25/7
f 11/32/8 12/31/8 10/30/8 9/29/8
f 16/36/9 11/35/9 9/34/9 14/33/9
f 15/40/10 16/39/10 14/38/10 13/37/10
f 14/44/11 9/43/11 10/42/11 13/41/11
f 15/48/12 12/47/12 11/46/12 16/45/12
o foot L
v 0.125 0.03125 0
v 0.125 0.03125 -0.09375
v 0.125 0 0
v 0.125 0 -0.09375
v 0.0625 0.03125 -0.09375
v 0.0625 0.03125 0
v 0.0625 0 -0.09375
v 0.0625 0 0
vt 0.375 0.6875
vt 0.4375 0.6875
vt 0.4375 0.625
vt 0.375 0.625
vt 0.5625 0.875
vt 0.6875 0.875
vt 0.6875 0.8125
vt 0.5625 0.8125
vt 0 0.3125
vt 0.0625 0.3125
vt 0.0625 0.25
vt 0 0.25
vt 0.5625 0.6875
vt 0.6875 0.6875
vt 0.6875 0.625
vt 0.5625 0.625
vt 0.1875 0.3125
vt 0.125 0.3125
vt 0.125 0.4375
vt 0.1875 0.4375
vt 0.625 0.625
vt 0.5625 0.625
vt 0.5625 0.5
vt 0.625 0.5
vn 0 0 -1
vn 1 0 0
vn 0 0 1
vn -1 0 0
vn 0 1 0
vn 0 -1 0
usemtl m_fc5c353a-ddc5-3aea-76e3-a26e78457cb1
f 20/52/13 23/51/13 21/50/13 18/49/13
f 19/56/14 20/55/14 18/54/14 17/53/14
f 24/60/15 19/59/15 17/58/15 22/57/15
f 23/64/16 24/63/16 22/62/16 21/61/16
f 22/68/17 17/67/17 18/66/17 21/65/17
f 23/72/18 20/71/18 19/70/18 24/69/18
o foot R
v 0 0.03125 0
v 0 0.03125 -0.09375
v 0 0 0
v 0 0 -0.09375
v -0.0625 0.03125 -0.09375
v -0.0625 0.03125 0
v -0.0625 0 -0.09375
v -0.0625 0 0
vt 0.6875 1
vt 0.75 1
vt 0.75 0.9375
vt 0.6875 0.9375
vt 0.4375 0.4375
vt 0.5625 0.4375
vt 0.5625 0.375
vt 0.4375 0.375
vt 0.0625 0.3125
vt 0.125 0.3125
vt 0.125 0.25
vt 0.0625 0.25
vt 0.5625 0.5
vt 0.6875 0.5
vt 0.6875 0.4375
vt 0.5625 0.4375
vt 0.625 0.3125
vt 0.5625 0.3125
vt 0.5625 0.4375
vt 0.625 0.4375
vt 0.25 0.375
vt 0.1875 0.375
vt 0.1875 0.25
vt 0.25 0.25
vn 0 0 -1
vn 1 0 0
vn 0 0 1
vn -1 0 0
vn 0 1 0
vn 0 -1 0
usemtl m_fc5c353a-ddc5-3aea-76e3-a26e78457cb1
f 28/76/19 31/75/19 29/74/19 26/73/19
f 27/80/20 28/79/20 26/78/20 25/77/20
f 32/84/21 27/83/21 25/82/21 30/81/21
f 31/88/22 32/87/22 30/86/22 29/85/22
f 30/92/23 25/91/23 26/90/23 29/89/23
f 31/96/24 28/95/24 27/94/24 32/93/24
o wing R
v -0.0625 0.16249999999999998 0.07499999999999996
v -0.0625 0.16249999999999998 -0.04999999999999999
v -0.0625 0.06874999999999998 0.07499999999999996
v -0.0625 0.06874999999999998 -0.04999999999999999
v -0.09375 0.16249999999999998 -0.04999999999999999
v -0.09375 0.16249999999999998 0.07499999999999996
v -0.09375 0.06874999999999998 -0.04999999999999999
v -0.09375 0.06874999999999998 0.07499999999999996
vt 0.625 0.8125
vt 0.6875 0.8125
vt 0.6875 0.6875
vt 0.625 0.6875
vt 0.5 0.8125
vt 0.625 0.8125
vt 0.625 0.6875
vt 0.5 0.6875
vt 0.25 0.375
vt 0.3125 0.375
vt 0.3125 0.25
vt 0.25 0.25
vt 0.3125 0.5
vt 0.4375 0.5
vt 0.4375 0.375
vt 0.3125 0.375
vt 0.375 0.25
vt 0.3125 0.25
vt 0.3125 0.375
vt 0.375 0.375
vt 0.4375 0.375
vt 0.375 0.375
vt 0.375 0.25
vt 0.4375 0.25
vn 0 0 -1
vn 1 0 0
vn 0 0 1
vn -1 0 0
vn 0 1 0
vn 0 -1 0
usemtl m_fc5c353a-ddc5-3aea-76e3-a26e78457cb1
f 36/100/25 39/99/25 37/98/25 34/97/25
f 35/104/26 36/103/26 34/102/26 33/101/26
f 40/108/27 35/107/27 33/106/27 38/105/27
f 39/112/28 40/111/28 38/110/28 37/109/28
f 38/116/29 33/115/29 34/114/29 37/113/29
f 39/120/30 36/119/30 35/118/30 40/117/30
o wing L
v 0.15625 0.16249999999999998 0.07499999999999996
v 0.15625 0.16249999999999998 -0.04999999999999999
v 0.15625 0.06874999999999998 0.07499999999999996
v 0.15625 0.06874999999999998 -0.04999999999999999
v 0.125 0.16249999999999998 -0.04999999999999999
v 0.125 0.16249999999999998 0.07499999999999996
v 0.125 0.06874999999999998 -0.04999999999999999
v 0.125 0.06874999999999998 0.07499999999999996
vt 0.625 0.625
vt 0.6875 0.625
vt 0.6875 0.5
vt 0.625 0.5
vt 0 0.4375
vt 0.125 0.4375
vt 0.125 0.3125
vt 0 0.3125
vt 0.4375 0.375
vt 0.5 0.375
vt 0.5 0.25
vt 0.4375 0.25
vt 0.5625 1
vt 0.6875 1
vt 0.6875 0.875
vt 0.5625 0.875
vt 0.5625 0.25
vt 0.5 0.25
vt 0.5 0.375
vt 0.5625 0.375
vt 0.6875 0.4375
vt 0.625 0.4375
vt 0.625 0.3125
vt 0.6875 0.3125
vn 0 0 -1
vn 1 0 0
vn 0 0 1
vn -1 0 0
vn 0 1 0
vn 0 -1 0
usemtl m_fc5c353a-ddc5-3aea-76e3-a26e78457cb1
f 44/124/31 47/123/31 45/122/31 42/121/31
f 43/128/32 44/127/32 42/126/32 41/125/32
f 48/132/33 43/131/33 41/130/33 46/129/33
f 47/136/34 48/135/34 46/134/34 45/133/34
f 46/140/35 41/139/35 42/138/35 45/137/35
f 47/144/36 44/143/36 43/142/36 48/141/36
o beak
v 0.03125 0.19062500000000016 -0.14062499999999994
v 0.03125 0.19062500000000016 -0.17187499999999994
v 0.03543670613173629 0.17812500000000014 -0.14062499999999994
v 0.042688293868263706 0.17812500000000014 -0.14062499999999994
v 0.046875 0.18437500000000015 -0.14062499999999994
v 0.046875 0.19687500000000013 -0.14062499999999994
v 0.042688293868263706 0.20312500000000014 -0.14062499999999994
v 0.0354367061317363 0.20937500000000014 -0.14062499999999994
v 0.027063293868263713 0.20937500000000014 -0.14062499999999994
v 0.019811706131736294 0.20312500000000014 -0.14062499999999994
v 0.015625 0.19687500000000013 -0.14062499999999994
v 0.015625 0.18437500000000015 -0.14062499999999994
v 0.01981170613173629 0.17812500000000014 -0.14062499999999994
v 0.02706329386826371 0.17812500000000014 -0.14062499999999994
vt 0.4176875 0.75
vt 0.4104375 0.75
vt 0.40625 0.7375
vt 0.4104375 0.5625
vt 0.4176875 0.5625
vt 0.40625 0.5961624999999999
vt 0.421875 0.74375
vt 0.4176875 0.75
vt 0.40625 0.7375
vt 0.38836162928026385 0.8145474343242601
vt 0.3955962415193781 0.8125
vt 0.4018461737824622 0.8474371213506402
vt 0.421875 0.73125
vt 0.421875 0.74375
vt 0.40625 0.7375
vt 0.3955962415193781 0.8125
vt 0.40809624151937807 0.8125
vt 0.4018462415193781 0.8474375000000001
vt 0.4176875 0.725
vt 0.421875 0.73125
vt 0.40625 0.7375
vt 0.40809624151937807 0.8125
vt 0.4153308893063855 0.8145473087115644
vt 0.4018452140239184 0.8474432436996197
vt 0.4104375 0.71875
vt 0.4176875 0.725
vt 0.40625 0.7375
vt 0.4153308893063855 0.8145473087115644
vt 0.42413837071973615 0.8183034897712956
vt 0.4018473363209918 0.8474380667288643
vt 0.4020625 0.71875
vt 0.4104375 0.71875
vt 0.40625 0.7375
vt 0.027062500000000003 0.4375
vt 0.0354375 0.4375
vt 0.03125 0.47394375
vt 0.3948125 0.725
vt 0.4020625 0.71875
vt 0.40625 0.7375
vt 0.2633592658256284 0.5683060043422127
vt 0.2721602004648699 0.5645504050507146
vt 0.28565074154887393 0.5974382974326126
vt 0.390625 0.73125
vt 0.3948125 0.725
vt 0.40625 0.7375
vt 0.2721602004648699 0.5645504050507146
vt 0.2794004673196207 0.5625
vt 0.285650508213369 0.5974377285960533
vt 0.390625 0.74375
vt 0.390625 0.73125
vt 0.40625 0.7375
vt 0.2794004673196207 0.5625
vt 0.2919004673196207 0.5625
vt 0.28565046731962074 0.5974375000000001
vt 0.3948125 0.75
vt 0.390625 0.74375
vt 0.40625 0.7375
vt 0.2919004673196207 0.5625
vt 0.2991407341743716 0.5645504050507146
vt 0.28565042642587235 0.5974377285960533
vt 0.4020625 0.75
vt 0.3948125 0.75
vt 0.40625 0.7375
vt 0.3948125 0.5625
vt 0.4020625 0.5625
vt 0.40625 0.5961624999999999
vt 0.4104375 0.75
vt 0.4020625 0.75
vt 0.40625 0.7375
vt 0.4020625 0.5625
vt 0.4104375 0.5625
vt 0.40625 0.5961624999999999
vn 0 2.220446049250313e-16 -1
vn 0 0.9284766908852592 0.3713906763541043
vn 0 2.220446049250313e-16 -1
vn -0.735084781941742 0.49241343422424394 0.46602507781572006
vn 0 2.220446049250313e-16 -1
vn -0.8944271909999161 -9.930136612989094e-17 0.44721359549995804
vn 0 2.220446049250313e-16 -1
vn -0.7350847819417422 -0.4924134342242443 0.46602507781571956
vn 0 2.220446049250313e-16 -1
vn -0.5739831820791373 -0.6659663046620874 0.47647894785082756
vn 0 2.220446049250313e-16 -1
vn 0 -0.8574929257125444 0.5144957554275261
vn 0 2.220446049250313e-16 -1
vn 0.5739831820791367 -0.665966304662088 0.4764789478508275
vn 0 2.220446049250313e-16 -1
vn 0.7350847819417422 -0.4924134342242443 0.46602507781571945
vn 0 2.220446049250313e-16 -1
vn 0.8944271909999161 -9.930136612989094e-17 0.44721359549995804
vn 0 2.220446049250313e-16 -1
vn 0.7350847819417422 0.4924134342242436 0.46602507781572006
vn 0 2.220446049250313e-16 -1
vn 0 0.9284766908852592 0.3713906763541043
vn 0 2.220446049250313e-16 -1
vn 0 0.9284766908852592 0.3713906763541043
usemtl m_4d38f055-faf3-c9f5-85db-0d37db7de386
f 52/145/37 51/146/37 49/147/37
f 51/148/38 52/149/38 50/150/38
f 53/151/39 52/152/39 49/153/39
f 52/154/40 53/155/40 50/156/40
f 54/157/41 53/158/41 49/159/41
f 53/160/42 54/161/42 50/162/42
f 55/163/43 54/164/43 49/165/43
f 54/166/44 55/167/44 50/168/44
f 56/169/45 55/170/45 49/171/45
f 55/172/46 56/173/46 50/174/46
f 57/175/47 56/176/47 49/177/47
f 56/178/48 57/179/48 50/180/48
f 58/181/49 57/182/49 49/183/49
f 57/184/50 58/185/50 50/186/50
f 59/187/51 58/188/51 49/189/51
f 58/190/52 59/191/52 50/192/52
f 60/193/53 59/194/53 49/195/53
f 59/196/54 60/197/54 50/198/54
f 61/199/55 60/200/55 49/201/55
f 60/202/56 61/203/56 50/204/56
f 62/205/57 61/206/57 49/207/57
f 61/208/58 62/209/58 50/210/58
f 51/211/59 62/212/59 49/213/59
f 62/214/60 51/215/60 50/216/60
o eye L
v 0.078125 0.22187500000000004 -0.140625
v 0.078125 0.22187500000000004 -0.15625
v 0.078125 0.20625000000000004 -0.140625
v 0.078125 0.20625000000000004 -0.15625
v 0.0625 0.22187500000000004 -0.15625
v 0.0625 0.22187500000000004 -0.140625
v 0.0625 0.20625000000000004 -0.15625
v 0.0625 0.20625000000000004 -0.140625
vt 0 1
vt 0.0625 1
vt 0.0625 0.9375
vt 0 0.9375
vt 0 0.875
vt 0.0625 0.875
vt 0.0625 0.8125
vt 0 0.8125
vt 0.125 1
vt 0.1875 1
vt 0.1875 0.9375
vt 0.125 0.9375
vt 0.125 0.875
vt 0.1875 0.875
vt 0.1875 0.8125
vt 0.125 0.8125
vt 0.0625 0.6875
vt 0 0.6875
vt 0 0.75
vt 0.0625 0.75
vt 0.3125 1
vt 0.25 1
vt 0.25 0.9375
vt 0.3125 0.9375
vn 0 0 -1
vn 1 0 0
vn 0 0 1
vn -1 0 0
vn 0 1 0
vn 0 -1 0
usemtl m_4d38f055-faf3-c9f5-85db-0d37db7de386
f 66/220/61 69/219/61 67/218/61 64/217/61
f 65/224/62 66/223/62 64/222/62 63/221/62
f 70/228/63 65/227/63 63/226/63 68/225/63
f 69/232/64 70/231/64 68/230/64 67/229/64
f 68/236/65 63/235/65 64/234/65 67/233/65
f 69/240/66 66/239/66 65/238/66 70/237/66
o eye R
v -0.003124999999999989 0.22187500000000004 -0.140625
v -0.003124999999999989 0.22187500000000004 -0.15625
v -0.003124999999999989 0.20625000000000004 -0.140625
v -0.003124999999999989 0.20625000000000004 -0.15625
v -0.01874999999999999 0.22187500000000004 -0.15625
v -0.01874999999999999 0.22187500000000004 -0.140625
v -0.01874999999999999 0.20625000000000004 -0.15625
v -0.01874999999999999 0.20625000000000004 -0.140625
vt 0.125 0.75
vt 0.1875 0.75
vt 0.1875 0.6875
vt 0.125 0.6875
vt 0.25 0.875
vt 0.3125 0.875
vt 0.3125 0.8125
vt 0.25 0.8125
vt 0.25 0.75
vt 0.3125 0.75
vt 0.3125 0.6875
vt 0.25 0.6875
vt 0 0.625
vt 0.0625 0.625
vt 0.0625 0.5625
vt 0 0.5625
vt 0.4375 0.9375
vt 0.375 0.9375
vt 0.375 1
vt 0.4375 1
vt 0.1875 0.625
vt 0.125 0.625
vt 0.125 0.5625
vt 0.1875 0.5625
vn 0 0 -1
vn 1 0 0
vn 0 0 1
vn -1 0 0
vn 0 1 0
vn 0 -1 0
usemtl m_4d38f055-faf3-c9f5-85db-0d37db7de386
f 74/244/67 77/243/67 75/242/67 72/241/67
f 73/248/68 74/247/68 72/246/68 71/245/68
f 78/252/69 73/251/69 71/250/69 76/249/69
f 77/256/70 78/255/70 76/254/70 75/253/70
f 76/260/71 71/259/71 72/258/71 75/257/71
f 77/264/72 74/263/72 73/262/72 78/261/72