# Made in Blockbench 4.9.4
mtllib materials.mtl

o cube
v 0.25 1.3375000000000001 0.3812500000000001
v 0.25 1.3375000000000001 0.06874999999999998
v 0.25 0.006250000000000311 0.3812500000000001
v 0.25 0.006250000000000311 0.06874999999999998
v -0.25 1.3375000000000001 0.06874999999999998
v -0.25 1.3375000000000001 0.3812500000000001
v -0.25 0.006250000000000311 0.06874999999999998
v -0.25 0.006250000000000311 0.3812500000000001
vt 0.53125 1
vt 0.65625 1
vt 0.65625 0.671875
vt 0.53125 0.671875
vt 0.296875 0.4375
vt 0.375 0.4375
vt 0.375 0.109375
vt 0.296875 0.109375
vt 0.171875 0.46875
vt 0.296875 0.46875
vt 0.296875 0.140625
vt 0.171875 0.140625
vt 0.5625 0.671875
vt 0.640625 0.671875
vt 0.640625 0.34375
vt 0.5625 0.34375
vt 0.765625 0.484375
vt 0.640625 0.484375
vt 0.640625 0.5625
vt 0.765625 0.5625
vt 0.765625 0.484375
vt 0.640625 0.484375
vt 0.640625 0.40625
vt 0.765625 0.40625
vn 0 0 -1
vn 1 0 0
vn 0 0 1
vn -1 0 0
vn 0 1 0
vn 0 -1 0
usemtl m_53f69bb2-25dd-9cc9-d95c-9d75138f2a73
f 4/4/1 7/3/1 5/2/1 2/1/1
f 3/8/2 4/7/2 2/6/2 1/5/2
f 8/12/3 3/11/3 1/10/3 6/9/3
f 7/16/4 8/15/4 6/14/4 5/13/4
f 6/20/5 1/19/5 2/18/5 5/17/5
f 7/24/6 4/23/6 3/22/6 8/21/6
o pyramid
v 0 1.4062499999999998 0.22499999999999987
v 0.5375 -0.006249999999999908 0.5624999999999994
v 0.5375 -0.006249999999999908 -0.1125000000000003
v -0.5375 -0.006249999999999908 0.5624999999999994
v -0.5375 -0.006249999999999908 -0.1125000000000003
vt 0.53125 0.828125
vt 0.53125 1
vt 0.265625 1
vt 0.265625 0.828125
vt 0.0035908319031520697 0.2902689843824485
vt 0.16828416809684793 0.2534903558953736
vt 0.16828416809684782 0.640625
vt 0.19429191521076997 0.5186487833628002
vt 0.44633308478922995 0.42536528354894254
vt 0.44633308478923006 0.8125
vt 0.006791915210769939 0.7061487833628002
vt 0.25883308478922995 0.6128652835489425
vt 0.25883308478923006 1
vt 0.39421583190315207 0.29026898438244864
vt 0.5589091680968479 0.2534903558953737
vt 0.5589091680968479 0.640625
vn 0 -1 0
vn 0.9346186967740142 0.3556513624892267 0
vn 0 0.2323962159445818 0.9726212000643618
vn 0 0.23239621594458215 -0.9726212000643617
vn -0.9346186967740142 0.3556513624892267 0
usemtl m_53f69bb2-25dd-9cc9-d95c-9d75138f2a73
f 11/25/7 10/26/7 12/27/7 13/28/7
f 10/29/8 11/30/8 9/31/8
f 12/32/9 10/33/9 9/34/9
f 11/35/10 13/36/10 9/37/10
f 13/38/11 12/39/11 9/40/11
o cube
v 0.15625 1.6875 0.3062499999999998
v 0.15625 1.6875 0.050000000000000044
v 0.15625 1.3312499999999998 0.3062499999999998
v 0.15625 1.3312499999999998 0.050000000000000044
v -0.15625 1.6875 0.050000000000000044
v -0.15625 1.6875 0.3062499999999998
v -0.15625 1.3312499999999998 0.050000000000000044
v -0.15625 1.3312499999999998 0.3062499999999998
vt 0.453125 0.6875
vt 0.53125 0.6875
vt 0.53125 0.59375
vt 0.453125 0.59375
vt 0.4375 0.265625
vt 0.5 0.265625
vt 0.5 0.171875
vt 0.4375 0.171875
vt 0.65625 0.8125
vt 0.734375 0.8125
vt 0.734375 0.71875
vt 0.65625 0.71875
vt 0.703125 0.265625
vt 0.765625 0.265625
vt 0.765625 0.171875
vt 0.703125 0.171875
vt 0.078125 0.796875
vt 0 0.796875
vt 0 0.859375
vt 0.078125 0.859375
vt 0.171875 0.25
vt 0.09375 0.25
vt 0.09375 0.1875
vt 0.171875 0.1875
vn 0 0 -1
vn 1 0 0
vn 0 0 1
vn -1 0 0
vn 0 1 0
vn 0 -1 0
usemtl m_53f69bb2-25dd-9cc9-d95c-9d75138f2a73
f 17/44/12 20/43/12 18/42/12 15/41/12
f 16/48/13 17/47/13 15/46/13 14/45/13
f 21/52/14 16/51/14 14/50/14 19/49/14
f 20/56/15 21/55/15 19/54/15 18/53/15
f 19/60/16 14/59/16 15/58/16 18/57/16
f 20/64/17 17/63/17 16/62/17 21/61/17
o pyramid
v 0 2.1750000000000007 0.18125000000000002
v 0.175 1.6750000000000003 0.3312499999999998
v 0.175 1.6750000000000003 0.031249999999999972
v -0.175 1.6750000000000003 0.3312499999999998
v -0.175 1.6750000000000003 0.031249999999999972
vt 0.796875 0.265625
vt 0.796875 0.34375
vt 0.703125 0.34375
vt 0.703125 0.265625
vt 0.45610606791250907 0.7109155781280062
vt 0.5282689320874909 0.6904822466800236
vt 0.5282689320874909 0.828125
vt 0.005393906622285519 0.5620460252095425
vt 0.08835609337771448 0.5342336975694955
vt 0.08835609337771448 0.671875
vt 0.005393856445727541 0.8901692443930571
vt 0.08835614355427246 0.8623572161009788
vt 0.08835614355427243 1
vt 0.09524112334001178 1
vt 0.11567445478799449 0.9278371358250181
vt 0.23288387665998822 1
vn 0 -1 0
vn 0.9438583563660176 0.3303504247281058 0
vn 0 0.2873478855663449 0.9578262852211518
vn 0 0.2873478855663453 -0.9578262852211517
vn -0.9438583563660176 0.3303504247281058 0
usemtl m_53f69bb2-25dd-9cc9-d95c-9d75138f2a73
f 24/65/18 23/66/18 25/67/18 26/68/18
f 23/69/19 24/70/19 22/71/19
f 25/72/20 23/73/20 22/74/20
f 24/75/21 26/76/21 22/77/21
f 26/78/22 25/79/22 22/80/22
o cube
v 0.18125000000000002 1.6875 0.34999999999999987
v 0.18125000000000002 1.6875 0.006249999999999978
v 0.18125000000000002 1.6312499999999996 0.34999999999999987
v 0.18125000000000002 1.6312499999999996 0.006249999999999978
v -0.18125000000000002 1.6875 0.006249999999999978
v -0.18125000000000002 1.6875 0.34999999999999987
v -0.18125000000000002 1.6312499999999996 0.006249999999999978
v -0.18125000000000002 1.6312499999999996 0.34999999999999987
vt 0.171875 0.484375
vt 0.265625 0.484375
vt 0.265625 0.46875
vt 0.171875 0.46875
vt 0.09375 0.921875
vt 0.171875 0.921875
vt 0.171875 0.90625
vt 0.09375 0.90625
vt 0.765625 0.484375
vt 0.859375 0.484375
vt 0.859375 0.46875
vt 0.765625 0.46875
vt 0.265625 0.71875
vt 0.34375 0.71875
vt 0.34375 0.703125
vt 0.265625 0.703125
vt 0.09375 0.1875
vt 0 0.1875
vt 0 0.265625
vt 0.09375 0.265625
vt 0.828125 0.8125
vt 0.734375 0.8125
vt 0.734375 0.734375
vt 0.828125 0.734375
vn 0 0 -1
vn 1 0 0
vn 0 0 1
vn -1 0 0
vn 0 1 0
vn 0 -1 0
usemtl m_53f69bb2-25dd-9cc9-d95c-9d75138f2a73
f 30/84/23 33/83/23 31/82/23 28/81/23
f 29/88/24 30/87/24 28/86/24 27/85/24
f 34/92/25 29/91/25 27/90/25 32/89/25
f 33/96/26 34/95/26 32/94/26 31/93/26
f 32/100/27 27/99/27 28/98/27 31/97/27
f 33/104/28 30/103/28 29/102/28 34/101/28
o cube
v 0.17500000000000004 1.4499999999999997 0.26249999999999973
v 0.17500000000000004 1.4499999999999997 0.025000000000000022
v 0.17500000000000004 1.0124999999999997 0.26249999999999973
v 0.17500000000000004 1.0124999999999997 0.025000000000000022
v -0.175 1.4499999999999997 0.025000000000000022
v -0.175 1.4499999999999997 0.26249999999999973
v -0.175 1.0124999999999997 0.025000000000000022
v -0.175 1.0124999999999997 0.26249999999999973
vt 0.265625 0.828125
vt 0.359375 0.828125
vt 0.359375 0.71875
vt 0.265625 0.71875
vt 0.734375 0.734375
vt 0.796875 0.734375
vt 0.796875 0.625
vt 0.734375 0.625
vt 0.640625 0.671875
vt 0.734375 0.671875
vt 0.734375 0.5625
vt 0.640625 0.5625
vt 0.375 0.265625
vt 0.4375 0.265625
vt 0.4375 0.15625
vt 0.375 0.15625
vt 0.828125 0.5625
vt 0.734375 0.5625
vt 0.734375 0.625
vt 0.828125 0.625
vt 0.859375 0.5625
vt 0.765625 0.5625
vt 0.765625 0.5
vt 0.859375 0.5
vn 0 0 -1
vn 1 0 0
vn 0 0 1
vn -1 0 0
vn 0 1 0
vn 0 -1 0
usemtl m_53f69bb2-25dd-9cc9-d95c-9d75138f2a73
f 38/108/29 41/107/29 39/106/29 36/105/29
f 37/112/30 38/111/30 36/110/30 35/109/30
f 42/116/31 37/115/31 35/114/31 40/113/31
f 41/120/32 42/119/32 40/118/32 39/117/32
f 40/124/33 35/123/33 36/122/33 39/121/33
f 41/128/34 38/127/34 37/126/34 42/125/34
o cube
v -0.2562500000000011 1.2983012810566295 0.22779169680794353
v -0.2562500000000011 1.0133600356437291 -0.35642443328651513
v -0.2562500000000011 1.0904551578499473 0.3291650245029176
v -0.2562500000000011 0.805513912437047 -0.2550511055915411
v -0.45625000000000127 1.0133600356437291 -0.35642443328651513
v -0.45625000000000127 1.2983012810566295 0.22779169680794353
v -0.45625000000000127 0.805513912437047 -0.2550511055915411
v -0.45625000000000127 1.0904551578499473 0.3291650245029176
vt 0 0.6875
vt 0.046875 0.6875
vt 0.046875 0.625
vt 0 0.625
vt 0.640625 0.40625
vt 0.796875 0.40625
vt 0.796875 0.34375
vt 0.640625 0.34375
vt 0.09375 0.65625
vt 0.140625 0.65625
vt 0.140625 0.59375
vt 0.09375 0.59375
vt 0.65625 1
vt 0.8125 1
vt 0.8125 0.9375
vt 0.65625 0.9375
vt 0.046875 0.390625
vt 0 0.390625
vt 0 0.546875
vt 0.046875 0.546875
vt 0.609375 0.34375
vt 0.5625 0.34375
vt 0.5625 0.1875
vt 0.609375 0.1875
vn 0 -0.4383711467890774 -0.898794046299167
vn 1 0 0
vn 0 0.4383711467890774 0.898794046299167
vn -1 0 0
vn 0 0.898794046299167 -0.4383711467890774
vn 0 -0.898794046299167 0.4383711467890774
usemtl m_53f69bb2-25dd-9cc9-d95c-9d75138f2a73
f 46/132/35 49/131/35 47/130/35 44/129/35
f 45/136/36 46/135/36 44/134/36 43/133/36
f 50/140/37 45/139/37 43/138/37 48/137/37
f 49/144/38 50/143/38 48/142/38 47/141/38
f 48/148/39 43/147/39 44/146/39 47/145/39
f 49/152/40 46/151/40 45/150/40 50/149/40
o cube
v -0.3125000000000011 1.0071912790363344 -0.29778563263439806
v -0.3125000000000011 0.9523948856876996 -0.41013488842179413
v -0.3125000000000011 0.9060769488276779 -0.24846887862062672
v -0.3125000000000011 0.8512805554790432 -0.36081813440802285
v -0.4187500000000013 0.9523948856876996 -0.41013488842179413
v -0.4187500000000013 1.0071912790363344 -0.29778563263439806
v -0.4187500000000013 0.8512805554790432 -0.36081813440802285
v -0.4187500000000013 0.9060769488276779 -0.24846887862062672
vt 0 1
vt 0.03125 1
vt 0.03125 0.96875
vt 0 0.96875
vt 0 0.96875
vt 0.03125 0.96875
vt 0.03125 0.9375
vt 0 0.9375
vt 0.03125 1
vt 0.0625 1
vt 0.0625 0.96875
vt 0.03125 0.96875
vt 0.09375 0.90625
vt 0.125 0.90625
vt 0.125 0.875
vt 0.09375 0.875
vt 0.109375 0.828125
vt 0.078125 0.828125
vt 0.078125 0.859375
vt 0.109375 0.859375
vt 0.03125 0.796875
vt 0 0.796875
vt 0 0.765625
vt 0.03125 0.765625
vn 0 -0.4383711467890774 -0.898794046299167
vn 1 0 0
vn 0 0.4383711467890774 0.898794046299167
vn -1 0 0
vn 0 0.898794046299167 -0.4383711467890774
vn 0 -0.898794046299167 0.4383711467890774
usemtl m_53f69bb2-25dd-9cc9-d95c-9d75138f2a73
f 54/156/41 57/155/41 55/154/41 52/153/41
f 53/160/42 54/159/42 52/158/42 51/157/42
f 58/164/43 53/163/43 51/162/43 56/161/43
f 57/168/44 58/167/44 56/166/44 55/165/44
f 56/172/45 51/171/45 52/170/45 55/169/45
f 57/176/46 54/175/46 53/174/46 58/173/46
o cube
v 0.39374999999999893 1.1975495843546191 -0.3509969252864921
v 0.39374999999999893 1.1823159164289756 -0.47506519424165755
v 0.39374999999999893 1.0858881422949695 -0.33728662415341293
v 0.39374999999999893 1.0706544743693263 -0.46135489310857836
v 0.28749999999999876 1.1823159164289756 -0.47506519424165755
v 0.28749999999999876 1.1975495843546191 -0.3509969252864921
v 0.28749999999999876 1.0706544743693263 -0.46135489310857836
v 0.28749999999999876 1.0858881422949695 -0.33728662415341293
vt 0.265625 0.703125
vt 0.296875 0.703125
vt 0.296875 0.671875
vt 0.265625 0.671875
vt 0.265625 0.671875
vt 0.296875 0.671875
vt 0.296875 0.640625
vt 0.265625 0.640625
vt 0.359375 0.8125
vt 0.390625 0.8125
vt 0.390625 0.78125
vt 0.359375 0.78125
vt 0.359375 0.78125
vt 0.390625 0.78125
vt 0.390625 0.75
vt 0.359375 0.75
vt 0.125 0.5625
vt 0.09375 0.5625
vt 0.09375 0.59375
vt 0.125 0.59375
vt 0.203125 0.5625
vt 0.171875 0.5625
vt 0.171875 0.53125
vt 0.203125 0.53125
vn 0 -0.12186934340514746 -0.992546151641322
vn 1 0 0
vn 0 0.12186934340514746 0.992546151641322
vn -1 0 0
vn 0 0.992546151641322 -0.12186934340514746
vn 0 -0.992546151641322 0.12186934340514746
usemtl m_53f69bb2-25dd-9cc9-d95c-9d75138f2a73
f 62/180/47 65/179/47 63/178/47 60/177/47
f 61/184/48 62/183/48 60/182/48 59/181/48
f 66/188/49 61/187/49 59/186/49 64/185/49
f 65/192/50 66/191/50 64/190/50 63/189/50
f 64/196/51 59/195/51 60/194/51 63/193/51
f 65/200/52 62/199/52 61/198/52 66/197/52
o cube
v 0.44999999999999896 1.3016882576364983 0.24072234871689036
v 0.44999999999999896 1.2224731844231524 -0.40443264984996924
v 0.44999999999999896 1.0721619600694425 0.26890463437933065
v 0.44999999999999896 0.9929468868560967 -0.3762503641875289
v 0.24999999999999878 1.2224731844231524 -0.40443264984996924
v 0.24999999999999878 1.3016882576364983 0.24072234871689036
v 0.24999999999999878 0.9929468868560967 -0.3762503641875289
v 0.24999999999999878 1.0721619600694425 0.26890463437933065
vt 0.171875 0.625
vt 0.21875 0.625
vt 0.21875 0.5625
vt 0.171875 0.5625
vt 0.65625 0.9375
vt 0.8125 0.9375
vt 0.8125 0.875
vt 0.65625 0.875
vt 0.453125 0.59375
vt 0.5 0.59375
vt 0.5 0.53125
vt 0.453125 0.53125
vt 0.65625 0.875
vt 0.8125 0.875
vt 0.8125 0.8125
vt 0.65625 0.8125
vt 0.65625 0.1875
vt 0.609375 0.1875
vt 0.609375 0.34375
vt 0.65625 0.34375
vt 0.703125 0.34375
vt 0.65625 0.34375
vt 0.65625 0.1875
vt 0.703125 0.1875
vn 0 -0.12186934340514746 -0.992546151641322
vn 1 0 0
vn 0 0.12186934340514746 0.992546151641322
vn -1 0 0
vn 0 0.992546151641322 -0.12186934340514746
vn 0 -0.992546151641322 0.12186934340514746
usemtl m_53f69bb2-25dd-9cc9-d95c-9d75138f2a73
f 70/204/53 73/203/53 71/202/53 68/201/53
f 69/208/54 70/207/54 68/206/54 67/205/54
f 74/212/55 69/211/55 67/210/55 72/209/55
f 73/216/56 74/215/56 72/214/56 71/213/56
f 72/220/57 67/219/57 68/218/57 71/217/57
f 73/224/58 70/223/58 69/222/58 74/221/58
o cube
v 0.33124999999999905 1.1019161419943273 -0.3381769184287902
v 0.33124999999999905 1.1534332339739477 -0.8732023750511491
v 0.33124999999999905 1.0832524632749418 -0.33997402628854445
v 0.33124999999999905 1.1347695552545622 -0.8749994829109033
v 0.31874999999999887 1.1534332339739477 -0.8732023750511491
v 0.31874999999999887 1.1019161419943273 -0.3381769184287902
v 0.31874999999999887 1.1347695552545622 -0.8749994829109033
v 0.31874999999999887 1.0832524632749418 -0.33997402628854445
vt 0.03125 0.96875
vt 0.046875 0.96875
vt 0.046875 0.953125
vt 0.03125 0.953125
vt 0.359375 0.828125
vt 0.5 0.828125
vt 0.5 0.8125
vt 0.359375 0.8125
vt 0 0.9375
vt 0.015625 0.9375
vt 0.015625 0.921875
vt 0 0.921875
vt 0.765625 0.5
vt 0.90625 0.5
vt 0.90625 0.484375
vt 0.765625 0.484375
vt 0.390625 0.296875
vt 0.375 0.296875
vt 0.375 0.4375
vt 0.390625 0.4375
vt 0.515625 0.25
vt 0.5 0.25
vt 0.5 0.109375
vt 0.515625 0.109375
vn 0 0.09584575252022398 -0.9953961983671789
vn 1 0 0
vn 0 -0.09584575252022398 0.9953961983671789
vn -1 0 0
vn 0 0.9953961983671789 0.09584575252022398
vn 0 -0.9953961983671789 -0.09584575252022398
usemtl m_53f69bb2-25dd-9cc9-d95c-9d75138f2a73
f 78/228/59 81/227/59 79/226/59 76/225/59
f 77/232/60 78/231/60 76/230/60 75/229/60
f 82/236/61 77/235/61 75/234/61 80/233/61
f 81/240/62 82/239/62 80/238/62 79/237/62
f 80/244/63 75/243/63 76/242/63 79/241/63
f 81/248/64 78/247/64 77/246/64 82/245/64